<?xml version="1.0" standalone="no"?>
<!DOCTYPE svg PUBLIC "-//W3C//DTD SVG 20010904//EN"
 "http://www.w3.org/TR/2001/REC-SVG-20010904/DTD/svg10.dtd">
<svg version="1.0" xmlns="http://www.w3.org/2000/svg"
 width="400.000000pt" height="150.000000pt" viewBox="0 0 400.000000 150.000000"
 preserveAspectRatio="xMidYMid meet">
<metadata>
Created by potrace 1.15, written by Peter Selinger 2001-2017
</metadata>
<g transform="translate(0.000000,150.000000) scale(0.100000,-0.100000)"
fill="#000000" stroke="none">
<path d="M2490 1050 c0 -37 -2 -40 -19 -30 -73 38 -143 -32 -111 -111 20 -46
78 -66 109 -36 11 10 14 10 18 0 3 -7 13 -13 24 -13 18 0 19 8 19 115 0 108
-1 115 -20 115 -17 0 -20 -7 -20 -40z"/>
<path d="M1684 1061 c-60 -37 -66 -129 -13 -177 32 -29 110 -26 143 5 14 14
26 28 26 33 0 14 -37 9 -50 -7 -13 -16 -66 -20 -87 -7 -6 4 -16 20 -22 35 -11
29 0 75 22 89 20 13 65 9 81 -7 15 -16 56 -21 56 -7 0 5 -11 19 -24 31 -34 32
-93 37 -132 12z"/>
<path d="M2704 1061 c-60 -37 -66 -129 -13 -177 32 -29 110 -26 143 5 14 14
26 28 26 33 0 14 -37 9 -50 -7 -13 -16 -66 -20 -87 -7 -6 4 -16 20 -22 35 -11
29 0 75 22 89 20 13 65 9 81 -7 15 -16 56 -21 56 -7 0 5 -11 19 -24 31 -34 32
-93 37 -132 12z"/>
<path d="M1912 1023 c-17 -6 -42 -57 -42 -83 0 -32 53 -80 88 -80 38 0 79 32
87 69 7 33 -15 85 -40 95 -19 7 -74 7 -93 -1z"/>
<path d="M2917 1013 c-36 -41 -29 -121 14 -143 25 -14 62 -12 78 3 11 10 14
10 18 0 3 -7 13 -13 24 -13 17 0 19 8 19 85 0 78 -2 85 -20 85 -11 0 -20 -5
-20 -12 0 -9 -3 -9 -12 0 -18 18 -82 15 -101 -5z"/>
<path d="M3263 1015 c-45 -32 -37 -121 13 -144 36 -16 69 -14 95 8 31 25 17
38 -25 23 -36 -13 -61 -8 -70 14 -4 11 7 14 59 14 62 0 65 1 65 24 0 13 -9 35
-21 50 -24 30 -80 36 -116 11z"/>
<path d="M1650 665 c0 -13 106 -15 890 -15 784 0 890 2 890 15 0 13 -106 15
-890 15 -784 0 -890 -2 -890 -15z"/>
<path d="M3447 513 c-4 -3 -4 -23 -1 -45 4 -23 3 -38 -4 -38 -5 0 -9 8 -8 18
1 13 -7 17 -39 18 -32 1 -34 1 -7 -3 50 -7 38 -23 -18 -23 -47 0 -66 12 -37
23 7 4 6 6 -5 6 -9 1 -18 -5 -21 -11 -3 -9 -14 -4 -32 15 -27 29 -34 30 -39 5
-2 -7 -6 -20 -9 -28 -15 -39 -16 -86 -2 -104 8 -11 15 -14 15 -8 0 9 37 12
135 12 l135 0 -7 -32 c-15 -82 -11 -79 -130 -76 l-106 3 -13 35 c-10 28 -13
31 -13 12 -1 -13 4 -32 9 -43 10 -17 22 -19 124 -19 79 0 117 4 124 13 5 6 13
33 16 59 4 26 11 50 17 53 14 9 11 49 -6 71 -9 13 -12 31 -8 57 6 37 5 37 -29
37 -19 0 -38 -3 -41 -7z"/>
<path d="M2562 418 l1 -73 6 65 6 65 125 0 125 0 1 -55 c0 -30 2 -58 2 -61 1
-3 22 -3 47 1 25 4 48 3 51 -2 3 -4 0 -8 -5 -8 -17 0 -13 -30 4 -36 16 -7 21
-34 6 -34 -5 0 -14 7 -21 15 -15 18 -42 19 -58 3 -9 -9 -12 -7 -12 10 0 12 -4
22 -10 22 -5 0 -9 -10 -7 -22 2 -22 -2 -23 -64 -26 -50 -2 -69 1 -79 13 -16
19 -44 19 -60 0 -7 -8 -22 -15 -34 -14 -21 0 -21 0 2 9 33 14 27 20 -18 20
-22 0 -40 -4 -40 -10 0 -5 7 -10 15 -10 8 0 15 -4 15 -10 0 -5 9 -10 20 -10
10 0 24 -9 30 -20 7 -13 21 -20 40 -20 19 0 33 7 40 20 9 17 21 20 79 20 60 0
69 -2 74 -20 8 -29 54 -26 83 6 28 30 32 88 8 115 -13 14 -19 37 -23 82 -1 4
-16 7 -35 7 -21 0 -36 6 -40 15 -4 12 -30 15 -141 15 l-135 0 2 -72z"/>
<path d="M2035 456 c-22 -22 -26 -34 -23 -67 3 -33 1 -39 -15 -39 -10 0 -15
-5 -11 -11 3 -6 14 -9 24 -6 12 3 26 -6 40 -25 24 -33 97 -88 116 -88 7 0 42
27 77 60 36 33 73 60 83 60 17 1 17 2 3 13 -9 7 -16 27 -16 46 0 49 -43 85
-92 76 -49 -8 -69 -8 -118 0 -37 7 -45 4 -68 -19z m97 0 c24 -13 33 -13 68 1
39 16 42 15 68 -4 21 -16 27 -28 27 -59 0 -33 -3 -39 -20 -36 -11 2 -23 9 -26
14 -4 6 -12 8 -18 4 -6 -4 -13 4 -17 19 -9 37 -22 31 -34 -17 -6 -24 -12 -47
-14 -53 -2 -5 -11 9 -21 33 -20 49 -27 52 -43 17 -16 -34 -67 -36 -76 -2 -10
37 -7 47 19 72 28 28 48 31 87 11z m79 -93 c6 -15 13 -23 17 -17 5 7 15 6 30
-2 l24 -12 -36 -36 c-20 -20 -48 -43 -62 -52 -27 -18 -26 -19 -101 50 -37 34
-42 46 -14 39 13 -3 24 2 33 16 18 29 23 27 38 -19 7 -22 17 -40 21 -40 8 0
29 63 29 88 0 20 10 14 21 -15z"/>
</g>
</svg>
